<?xml version="1.0" encoding="utf-8"?>
<!-- Generator: Adobe Illustrator 28.0.0, SVG Export Plug-In . SVG Version: 6.00 Build 0)  -->
<svg version="1.1" id="Ebene_1" xmlns="http://www.w3.org/2000/svg" xmlns:xlink="http://www.w3.org/1999/xlink" x="0px" y="0px"
	 viewBox="0 0 4461.2 6392.5" enable-background="new 0 0 4461.2 6392.5" xml:space="preserve">
<g>
	<g>
		<path fill-rule="evenodd" clip-rule="evenodd" d="M2237.2,6126.3c-1.6,0.3-1.7-0.9-3-1c-194.7-208.6-376.5-432.5-548-667
			c-342.2-467.9-635.4-981.3-893-1535c-129-277.2-245-566.8-345-869c-75.7-228.8-153.6-453.2-164-748c-3.5-99.6,0-196.6,10-291
			c38.1-360.6,166.8-644.3,328-886c162.5-243.6,373.6-434.7,628-586c221.4-131.7,485-228.1,804-259c23.1-2.2,46.9-3.8,71-5
			c435.9-22.4,783.6,89.4,1056,241c262,145.8,478.9,338.5,647,577c168.5,239.1,299,520.1,345,879c23.5,183,20,397.3-9,571
			c-28.9,172.6-79.8,327.3-131,480c-204.2,608.7-461.3,1170.5-763,1685C2968.3,5227.1,2631.2,5705.2,2237.2,6126.3z M1777.2,1279.3
			c-117.2,58.9-221.9,130.1-306,222c-165,180.2-298.3,416.7-290,764c4,165,46,305.7,104,423c115.8,234.2,296.4,411.2,542,514
			c125.1,52.4,269.9,84.7,444,82c162.1-2.5,304.5-48.9,423-104c120.5-56.1,221-133.5,306-222c86.6-90.1,156.3-195,209-319
			c52.9-124.5,85.4-270.3,82-444c-3.2-158.9-46.3-308.1-104-423c-60.8-121-127.5-218.2-222-306c-90.9-84.5-192.4-156-319-209
			c-121.1-50.7-275.9-90.1-446-82C2032.5,1183.3,1895.8,1219.7,1777.2,1279.3z"/>
	</g>
</g>
</svg>
